<?xml version="1.0" encoding="UTF-8" standalone="no"?>
<svg
   xmlns:dc="http://purl.org/dc/elements/1.1/"
   xmlns:cc="http://creativecommons.org/ns#"
   xmlns:rdf="http://www.w3.org/1999/02/22-rdf-syntax-ns#"
   xmlns:svg="http://www.w3.org/2000/svg"
   xmlns="http://www.w3.org/2000/svg"
   xmlns:sodipodi="http://sodipodi.sourceforge.net/DTD/sodipodi-0.dtd"
   xmlns:inkscape="http://www.inkscape.org/namespaces/inkscape"
   width="20.232422"
   height="28.689312"
   viewBox="0 0 20.232422 28.689312"
   version="1.1"
   id="svg4"
   sodipodi:docname="reservia-short.svg"
   style="fill:none"
   inkscape:version="0.92.4 (5da689c313, 2019-01-14)">
  <metadata
     id="metadata10">
    <rdf:RDF>
      <cc:Work
         rdf:about="">
        <dc:format>image/svg+xml</dc:format>
        <dc:type
           rdf:resource="http://purl.org/dc/dcmitype/StillImage" />
        <dc:title></dc:title>
      </cc:Work>
    </rdf:RDF>
  </metadata>
  <defs
     id="defs8" />
  <sodipodi:namedview
     pagecolor="#ffffff"
     bordercolor="#666666"
     borderopacity="1"
     objecttolerance="10"
     gridtolerance="10"
     guidetolerance="10"
     inkscape:pageopacity="0"
     inkscape:pageshadow="2"
     inkscape:window-width="1920"
     inkscape:window-height="1017"
     id="namedview6"
     showgrid="false"
     inkscape:zoom="14.721649"
     inkscape:cx="48.342316"
     inkscape:cy="22.479481"
     inkscape:window-x="-8"
     inkscape:window-y="-8"
     inkscape:window-maximized="1"
     inkscape:current-layer="svg4" />
  <path
     d="m 11.759722,21.077986 c -0.2343,-0.7266 -0.4687,-1.3711 -0.7031,-1.9336 -0.2109,-0.5625 -0.3984,-1.043 -0.5625,-1.4414 -0.914,0.3047 -1.91014,0.5156 -2.98826,0.6328 0,1.5 0.03515,2.7774 0.10547,3.8321 0.02343,0.6562 0.04687,1.2187 0.07031,1.6874 0.04687,0.4454 0.08203,0.8321 0.10547,1.1602 0.04687,0.3281 0.09375,0.6211 0.14062,0.8789 0.04688,0.2813 0.11719,0.5508 0.21094,0.8086 -0.46875,0.3516 -0.92578,0.6094 -1.37109,0.7734 -0.42188,0.1641 -0.79688,0.2813 -1.125,0.3516 -0.39844,0.0938 -0.75,0.1172 -1.05469,0.0703 -0.11719,-0.3281 -0.22266,-0.6797 -0.31641,-1.0547 -0.09375,-0.3515 -0.16406,-0.8437 -0.21094,-1.4765 -0.02343,-0.6094 -0.03515,-1.3946 -0.03515,-2.3555 0,-0.9609 0.03515,-2.1914 0.10547,-3.6914 0.02344,-0.1641 0.03515,-0.3281 0.03515,-0.4922 0,-0.1641 0.01172,-0.3281 0.03516,-0.4922 -0.21094,-0.0234 -0.43359,-0.0469 -0.66797,-0.0703 -0.21094,-0.0234 -0.42187,-0.0469 -0.63281,-0.0703 -0.14063,-0.375 -0.23438,-0.7031 -0.28125,-0.9844 -0.04688,-0.3047 -0.07031,-0.5508 -0.07031,-0.7383 0,-0.2343 0.02343,-0.4218 0.07031,-0.5625 0.375,0.0703 0.75,0.1055 1.125,0.1055 h 0.52734 c 0.04688,-0.9844 0.09375,-1.9805 0.14063,-2.9883 0.04687,-1.0312 0.08203,-2.0273 0.10547,-2.9883 0.04687,-0.9842998 0.08203,-1.9100998 0.10546,-2.7772998 0.02344,-0.8906 0.04688,-1.6992 0.07032,-2.4258 -0.70313,0.4688 -1.3125,1.0781 -1.82813,1.8281 -0.51562,0.75 -0.86719,1.6172 -1.05469,2.6016 -0.30468,-0.0469 -0.5625,-0.1875 -0.77343,-0.4219 -0.21094,-0.2578 -0.38672,-0.5156 -0.52735,-0.7734 -0.16406,-0.3047 -0.30468,-0.6445 -0.421871,-1.0195 -0.117188,-0.4453 -0.117188,-0.8907 0,-1.336 0.117191,-0.4687 0.292971,-0.9023 0.527341,-1.3008 0.23438,-0.4218 0.50391,-0.7851 0.8086,-1.0898 0.30468,-0.3281 0.59765,-0.5859 0.8789,-0.7734 0.49219,-0.3047 0.9961,-0.5743 1.51172,-0.8086 0.53906,-0.25784 1.13672,-0.46878 1.79297,-0.63284 0.25781,-0.25781995 0.53906,-0.49218995 0.84375,-0.70312995 0.32813,-0.21094 0.63281,-0.33984 0.91406,-0.38672 0.39844,-0.09375 0.6211,0.15235 0.66797,0.73828 0.21094,-0.02343 0.4336,-0.03515 0.66797,-0.03515 0.23437,-0.02344 0.48045,-0.03516 0.73825,-0.03516 0.8907,0 1.8164,0.14063 2.7774,0.42187995 0.9609,0.28125 1.8398,0.73824 2.6367,1.37104 0.8203,0.6094 1.4883,1.418 2.0039,2.4258 0.5156,0.9844 0.7734,2.1914 0.7734,3.6211 0,1.6171998 -0.3867,3.1054998 -1.1601,4.4648998 -0.75,1.3593 -1.8281,2.4843 -3.2344,3.375 0.1641,0.4218 0.375,0.9492 0.6328,1.582 0.2578,0.6328 0.5156,1.3477 0.7735,2.1445 0.375,0.9844 0.7734,1.9102 1.1953,2.7774 0.4453,0.8437 0.9023,1.582 1.3711,2.2148 0.4687,0.6328 0.9609,1.1367 1.4765,1.5117 0.5157,0.3985 1.0313,0.6328 1.5469,0.7032 -0.3047,0.4687 -0.6562,0.7968 -1.0547,0.9843 -0.3984,0.1875 -0.7969,0.3047 -1.1953,0.3516 -0.4453,0.0703 -0.9141,0.0703 -1.4062,0 -0.6797,-0.1406 -1.2657,-0.4687 -1.7579,-0.9844 -0.4921,-0.5156 -0.9257,-1.1367 -1.3007,-1.8633 -0.3516,-0.7265 -0.6797,-1.5 -0.9844,-2.3203 -0.2813,-0.8437 -0.5391,-1.6406 -0.7735,-2.3906 z M 7.681642,6.1013862 c 0,0.5157 -0.01172,1.1368 -0.03516,1.8633 -0.02344,0.7266 -0.04687,1.5117 -0.07031,2.3554998 0,0.8437 -0.01172,1.7344 -0.03516,2.6719 -0.02343,0.914 -0.03515,1.8281 -0.03515,2.7422 0.63281,-0.0938 1.32422,-0.2461 2.07426,-0.4571 0.7734,-0.2109 1.4882,-0.5625 2.1445,-1.0547 0.6562,-0.4922 1.207,-1.1484 1.6523,-1.9687 0.4453,-0.8203 0.668,-1.875 0.668,-3.1640998 0,-0.9844 -0.1758,-1.8164 -0.5273,-2.4961 -0.3282,-0.7031 -0.7618,-1.2656 -1.3008,-1.6875 -0.5391,-0.4453 -1.1367,-0.7617 -1.793,-0.9492 -0.6328,-0.2109 -1.2656,-0.3164 -1.89843,-0.3164 h -0.35156 c -0.11719,0 -0.2461,0.0117 -0.38672,0.0352 -0.07031,0.75 -0.10547,1.5586 -0.10547,2.4257 z"
     id="path2"
     inkscape:connector-curvature="0"
     style="fill:#0065fc"
     sodipodi:nodetypes="ccccccccccccccscsccccscsccccccccccccccccccccscccsccsccccccccccccsccccccsscccsscs" />
</svg>
